<?xml version="1.0" encoding="UTF-8" standalone="no"?>
<!-- Created with Inkscape (http://www.inkscape.org/) -->

<svg
   xmlns:dc="http://purl.org/dc/elements/1.1/"
   xmlns:cc="http://creativecommons.org/ns#"
   xmlns:rdf="http://www.w3.org/1999/02/22-rdf-syntax-ns#"
   xmlns:svg="http://www.w3.org/2000/svg"
   xmlns="http://www.w3.org/2000/svg"
   xmlns:sodipodi="http://sodipodi.sourceforge.net/DTD/sodipodi-0.dtd"
   xmlns:inkscape="http://www.inkscape.org/namespaces/inkscape"
   width="1884"
   height="765"
   id="svg2"
   sodipodi:version="0.32"
   inkscape:version="0.47 r22583"
   version="1.0"
   sodipodi:docname="EMSL_Header_chinook.svg"
   inkscape:output_extension="org.inkscape.output.svg.inkscape"
   inkscape:export-filename="/home/efelix/EMSL_Header.png"
   inkscape:export-xdpi="90"
   inkscape:export-ydpi="90">
  <defs
     id="defs4">
    <inkscape:perspective
       sodipodi:type="inkscape:persp3d"
       inkscape:vp_x="0 : 526.18109 : 1"
       inkscape:vp_y="0 : 1000 : 0"
       inkscape:vp_z="744.09448 : 526.18109 : 1"
       inkscape:persp3d-origin="372.04724 : 350.78739 : 1"
       id="perspective10" />
    <inkscape:perspective
       id="perspective2484"
       inkscape:persp3d-origin="372.04724 : 350.78739 : 1"
       inkscape:vp_z="744.09448 : 526.18109 : 1"
       inkscape:vp_y="0 : 1000 : 0"
       inkscape:vp_x="0 : 526.18109 : 1"
       sodipodi:type="inkscape:persp3d" />
    <clipPath
       id="clipPath3323"
       clipPathUnits="userSpaceOnUse">
      <path
         id="path3325"
         d="M 0,180 L 378,180 L 378,0 L 0,0 L 0,180 z" />
    </clipPath>
    <inkscape:perspective
       id="perspective3315"
       inkscape:persp3d-origin="372.04724 : 350.78739 : 1"
       inkscape:vp_z="744.09448 : 526.18109 : 1"
       inkscape:vp_y="0 : 1000 : 0"
       inkscape:vp_x="0 : 526.18109 : 1"
       sodipodi:type="inkscape:persp3d" />
  </defs>
  <sodipodi:namedview
     id="base"
     pagecolor="#ffffff"
     bordercolor="#666666"
     borderopacity="1.0"
     gridtolerance="10000"
     guidetolerance="10"
     objecttolerance="10"
     inkscape:pageopacity="0.0"
     inkscape:pageshadow="2"
     inkscape:zoom="1.1140564"
     inkscape:cx="742.3748"
     inkscape:cy="651.57515"
     inkscape:document-units="px"
     inkscape:current-layer="stretchlayer"
     showgrid="true"
     showguides="false"
     inkscape:window-width="1847"
     inkscape:window-height="908"
     inkscape:window-x="3268"
     inkscape:window-y="56"
     inkscape:snap-global="false"
     inkscape:window-maximized="0">
    <inkscape:grid
       type="xygrid"
       id="grid3286"
       visible="true"
       enabled="true"
       empspacing="5"
       snapvisiblegridlinesonly="true" />
  </sodipodi:namedview>
  <metadata
     id="metadata7">
    <rdf:RDF>
      <cc:Work
         rdf:about="">
        <dc:format>image/svg+xml</dc:format>
        <dc:type
           rdf:resource="http://purl.org/dc/dcmitype/StillImage" />
        <dc:title />
      </cc:Work>
    </rdf:RDF>
  </metadata>
  <g
     inkscape:label="Layer 1"
     inkscape:groupmode="layer"
     id="layer1">
    <path
       style="fill:none;stroke:#78a22e;stroke-width:3;stroke-linecap:butt;stroke-linejoin:miter;stroke-miterlimit:4;stroke-opacity:1;stroke-dasharray:none"
       d="m 2.5253813,139.2105 l 194.7183387,0 83.86541,-80.220653 678.31244,-0.02538"
       id="path2490"
       sodipodi:nodetypes="cccc"
       inkscape:export-xdpi="90"
       inkscape:export-ydpi="90"
       inkscape:export-filename="/home/efelix/text3371.png" />
    <g
       transform="matrix(0.5240536,0,0,-0.5240536,20.647035,107.77518)"
       inkscape:label="EMSL_Color_Logo"
       id="g3317"
       inkscape:export-xdpi="90"
       inkscape:export-ydpi="90"
       inkscape:export-filename="/home/efelix/text3371.png">
      <g
         id="g3319">
        <g
           clip-path="url(#clipPath3323)"
           id="g3321">
          <path
             id="path3327"
             style="fill:#6ea41b;fill-opacity:1;fill-rule:nonzero;stroke:none"
             d="m 232.27,95.766 l 9.962,0 0,-64.937 42.278,0 0,-9.956 -52.24,0 0,74.893 z" />
          <path
             id="path3329"
             style="fill:#6ea41b;fill-opacity:1;fill-rule:nonzero;stroke:none"
             d="m 19.617,20.873 l 51.872,0 0,9.763 -41.907,0 0,22.718 21.019,0 0,9.801 -21.019,0 0,22.745 41.907,0 0,9.866 -51.872,0 0,-74.893 z" />
          <path
             id="path3331"
             style="fill:#6ea41b;fill-opacity:1;fill-rule:nonzero;stroke:none"
             d="m 197.704,62.788 c -12.251,2.771 -24.397,4.157 -24.397,13.534 0,9.91 8.524,12.999 17.047,12.999 9.231,0 15.956,-3.671 18.204,-12.028 l 9.912,0 c -2.083,14.23 -13.28,20.554 -27.689,20.554 -13.855,0 -27.598,-6.82 -27.598,-22.27 0,-13.964 12.251,-17.475 24.398,-20.14 12.149,-2.667 24.295,-4.478 24.295,-14.921 0,-10.973 -10.12,-13.852 -19.284,-13.852 -10.391,0 -20.062,4.54 -21.847,14.831 l -9.724,0 c 1.708,-16.093 15.314,-23.354 31.253,-23.354 13.852,0 29.728,6.498 29.728,22.696 0,14.918 -12.148,19.184 -24.298,21.951" />
          <path
             id="path3333"
             style="fill:#6ea41b;fill-opacity:1;fill-rule:nonzero;stroke:none"
             d="m 82.893,95.766 l 0,-74.893 9.97,0 0.05,58.478 24.129,-34.869 23.729,34.632 0.009,-58.241 9.895,0 0,74.893 -10.506,0 -23.156,-33.962 -23.346,33.962 -10.774,0 z" />
          <path
             id="path3335"
             style="fill:#e88b0e;fill-opacity:1;fill-rule:nonzero;stroke:none"
             d="m 297.432,149.128 c 0,0 0.02,-0.236 0.028,-0.321 1.176,0.864 2.538,1.867 2.538,1.867 1.289,0.991 2.901,1.545 4.527,1.545 2.167,0 4.173,-0.954 5.504,-2.621 0.992,-1.235 1.52,-2.752 1.52,-4.339 0,-0.267 -0.018,-0.537 -0.044,-0.806 -0.21,-1.888 -1.184,-3.675 -2.678,-4.904 0,0 -1.265,-1.101 -2.317,-2.017 0.953,-0.242 1.925,-0.408 2.923,-0.408 6.617,0 12,5.385 12,12.004 0,6.617 -5.383,12.001 -12,12.001 -6.619,0 -12.001,-5.384 -12.001,-12.001" />
          <path
             id="path3337"
             style="fill:#e88b0e;fill-opacity:1;fill-rule:nonzero;stroke:none"
             d="m 323.48,123.078 c 0,-1.994 0.407,-3.922 1.031,-5.797 1.568,1.667 5.139,5.462 5.139,5.462 1.429,1.634 3.599,2.589 5.93,2.589 2.235,0 4.478,-0.845 6.315,-2.375 1.707,-1.422 2.912,-3.33 3.39,-5.372 0.566,-2.437 0.047,-4.897 -1.424,-6.744 0.017,0.02 -2.817,-3.835 -4.4,-5.982 0.852,-0.12 1.709,-0.296 2.534,-0.296 10.209,0 18.515,8.306 18.515,18.515 0,10.209 -8.306,18.514 -18.515,18.514 -10.209,0 -18.515,-8.305 -18.515,-18.514" />
          <path
             id="path3339"
             style="fill:#e88b0e;fill-opacity:1;fill-rule:nonzero;stroke:none"
             d="m 280.782,118.385 c -1.383,-1.154 -1.886,-2.922 -1.101,-3.862 0.037,-0.048 10.601,-14.401 10.601,-14.401 l -0.484,-0.612 c -0.83,-1.048 -1.577,-2.164 -2.222,-3.317 -2.074,-3.713 -3.17,-7.927 -3.17,-12.19 0,-13.801 11.229,-25.026 25.027,-25.026 13.797,0 25.026,11.225 25.026,25.026 0,4.266 -1.096,8.482 -3.171,12.19 -0.64,1.149 -1.391,2.264 -2.22,3.316 l -0.483,0.611 10.563,14.355 c 0.822,0.988 0.317,2.756 -1.065,3.91 -1.379,1.153 -3.211,1.327 -3.997,0.386 l -12.246,-13.017 -0.693,0.366 c -1.168,0.621 -2.403,1.153 -3.663,1.58 -2.602,0.882 -5.311,1.332 -8.051,1.332 -2.741,0 -5.45,-0.45 -8.048,-1.332 -1.274,-0.431 -2.507,-0.963 -3.666,-1.58 l -0.694,-0.369 -12.209,12.976 c -0.399,0.476 -0.913,0.607 -1.286,0.64 -0.884,0.08 -1.911,-0.288 -2.748,-0.982" />
          <path
             id="path3341"
             style="fill:#e88b0e;fill-opacity:1;fill-rule:nonzero;stroke:none"
             d="m 305.724,146.029 c -0.288,0.356 -0.622,0.578 -1.266,0.578 -0.577,0 -1.197,-0.467 -1.776,-0.932 -0.427,-0.346 -11.653,-8.596 -12.806,-9.442 l -0.394,0.367 c -0.934,0.874 -1.971,1.658 -3.086,2.329 -2.888,1.742 -6.185,2.663 -9.526,2.663 -10.209,0 -18.516,-8.305 -18.516,-18.514 0,-10.209 8.307,-18.515 18.516,-18.515 0.823,0 1.683,0.176 2.529,0.296 -1.362,1.851 -4.42,6.008 -4.42,6.008 -1.1,1.381 -1.634,3.044 -1.634,4.755 0,2.624 1.252,5.354 3.62,7.335 l 0.214,0.166 c 1.886,1.453 4.017,2.209 6.108,2.209 1.932,0 3.773,-0.663 5.185,-1.868 0.002,-0.005 0.745,-0.723 0.745,-0.723 0,0 3.308,-3.516 5.137,-5.458 0.624,1.873 1.031,3.801 1.031,5.795 0,1.961 -0.322,3.923 -0.95,5.824 -0.401,1.206 -0.937,2.39 -1.601,3.515 l -0.285,0.483 c 1.454,1.258 12.235,10.602 12.864,11.175 0.756,0.688 0.592,1.609 0.311,1.954" />
        </g>
      </g>
    </g>

    <text
       xml:space="preserve"
       style="font-size:56px;font-style:normal;font-variant:normal;font-weight:normal;font-stretch:normal;fill:#6ea41b;fill-opacity:1;stroke:none;font-family:Arial;-inkscape-font-specification:Arial"
       x="277.85715"
       y="115.71428"
       id="text3371"
       inkscape:export-xdpi="90"
       inkscape:export-ydpi="90"><tspan
         sodipodi:role="line"
         x="277.85715"
         y="115.71428"
         id="tspan3375"
         style="font-size:40px">Chinook Super Computer Perfomance</tspan></text>
  </g>
  <g
     inkscape:groupmode="layer"
     id="stretchlayer"
     inkscape:label="StretchLayer"
     preserveAspectRatio="none">
    <path
       inkscape:export-filename="/home/efelix/text3371.png"
       inkscape:export-ydpi="90"
       inkscape:export-xdpi="90"
       sodipodi:nodetypes="ccc"
       id="stretchy"
       d="m 960.0,58.964467 l 2000,0.0"
       style="fill:none;stroke:#78a22e;stroke-width:3;stroke-linecap:butt;stroke-linejoin:miter;stroke-miterlimit:4;stroke-opacity:1;stroke-dasharray:none"
       inkscape:label="#stretch"
       onload="x=document.width" />
  </g>
</svg>
