<?xml version="1.0" encoding="UTF-8" standalone="no"?>
<!-- Created with Inkscape (http://www.inkscape.org/) -->

<svg
   xmlns:dc="http://purl.org/dc/elements/1.1/"
   xmlns:cc="http://creativecommons.org/ns#"
   xmlns:rdf="http://www.w3.org/1999/02/22-rdf-syntax-ns#"
   xmlns:svg="http://www.w3.org/2000/svg"
   xmlns="http://www.w3.org/2000/svg"
   id="svg2"
   version="1.1"
   width="303"
   height="180"
   xml:space="preserve"
   >
<defs
     id="defs6">
<clipPath
       clipPathUnits="userSpaceOnUse"
       id="clipPath18"><path
         d="M 0,1228.21 0,0 l 2430,0 0,1228.21 -2430,0 z"
         id="path20" /></clipPath>
</defs>
<g
     pagecolor="#ffffff"
     bordercolor="#666666"
     borderopacity="1"
     objecttolerance="10"
     gridtolerance="10"
     guidetolerance="10"
     showgrid="false"
     id="g10"
     transform="matrix(1,0,0,-1,30,150)">
<g
       id="g12"
       transform="matrix(0.1,0,0,0.1,0,0)">
<g
           id="g16"
           clip-path="url(#clipPath18)"><path
             d="m 492.328,407.863 14.418,0 62.473,-75.918 0,75.918 10.097,0 0,-92.304 -10.097,0 -67.289,82.468 0,-82.468 -9.602,0 0,92.304"
             style="fill:#7b7678;fill-opacity:1;fill-rule:nonzero;stroke:none"
             id="path22"
              /><path
             d="m 655.559,361.867 -16.875,37.188 -16.911,-37.266 33.786,0.078 z m -23.121,45.996 12.48,0 43.004,-92.304 -11.434,0 -16.683,37.199 -41.739,0 -17.507,-37.199 -11.286,0 43.165,92.304"
             style="fill:#7b7678;fill-opacity:1;fill-rule:nonzero;stroke:none"
             id="path24"
              /><path
             d="m 710.344,398.027 -36.453,0 0,9.836 83.078,0 0,-9.836 -36.504,0 0,-82.468 -10.121,0 0,82.468"
             style="fill:#7b7678;fill-opacity:1;fill-rule:nonzero;stroke:none"
             id="path26"
              /><path
             d="m 767.109,315.559 10.1719,0 0,92.3047 -10.1719,0 0,-92.3047 z"
             style="fill:#7b7678;fill-opacity:1;fill-rule:nonzero;stroke:none"
             id="path28"
              /><path
             d="m 840.629,323.227 c 20.391,0 38.75,11.941 38.75,40 0,20.574 -14.445,37.5 -38.75,37.5 -24.406,0 -38.813,-16.926 -38.813,-37.5 0,-28.059 18.129,-40 38.813,-40 z m 0,86.914 c 28.519,0 49.117,-18.293 49.117,-49.016 0,-32.703 -24.949,-47.871 -49.117,-47.871 -24.262,0 -49.184,15.168 -49.184,47.871 0,30.723 20.7,49.016 49.184,49.016"
             style="fill:#7b7678;fill-opacity:1;fill-rule:nonzero;stroke:none"
             id="path30"
              /><path
             d="m 903.977,407.863 14.425,0 62.457,-75.918 0,75.918 10.133,0 0,-92.304 -10.133,0 -67.211,82.468 0,-82.468 -9.671,0 0,92.304"
             style="fill:#7b7678;fill-opacity:1;fill-rule:nonzero;stroke:none"
             id="path32"
              /><path
             d="m 1109.54,407.863 10.22,0 0,-82.414 66.15,0 0,-9.89 -76.37,0 0,92.304"
             style="fill:#7b7678;fill-opacity:1;fill-rule:nonzero;stroke:none"
             id="path34"
              /><path
             d="m 1244.28,407.863 10.22,0 0,-82.414 66.25,0 0,-9.89 -76.47,0 0,92.304"
             style="fill:#7b7678;fill-opacity:1;fill-rule:nonzero;stroke:none"
             id="path36"
              /><path
             d="m 1445.51,325.449 39.34,0 c 12.17,0 24.12,2.309 24.12,16.391 0,12.808 -9.3,17.305 -22.95,17.305 l -40.51,0 0,-33.696 z m 0,43.059 35.65,0 c 11.79,0 25.13,2.156 25.13,15.039 0,14.773 -13.61,14.961 -28.59,14.961 l -32.19,0 0,-30 z m -10.17,39.355 48.57,0 c 9.57,0 32.62,0 32.62,-24.062 0,-12.754 -7.56,-16.699 -12.87,-19.414 5.08,-2.52 15.7,-7.61 15.7,-22.879 0,-24.934 -23.63,-25.949 -41.15,-25.949 l -42.87,0 0,92.304"
             style="fill:#7b7678;fill-opacity:1;fill-rule:nonzero;stroke:none"
             id="path38"
              /><path
             d="m 1578.52,323.227 c 20.39,0 38.71,11.941 38.71,40 0,20.574 -14.37,37.5 -38.71,37.5 -24.39,0 -38.83,-16.926 -38.83,-37.5 0,-28.059 18.13,-40 38.83,-40 z m 0,86.914 c 28.42,0 49.1,-18.293 49.1,-49.016 0,-32.703 -24.96,-47.871 -49.1,-47.871 -24.32,0 -49.18,15.168 -49.18,47.871 0,30.723 20.61,49.016 49.18,49.016"
             style="fill:#7b7678;fill-opacity:1;fill-rule:nonzero;stroke:none"
             id="path40"
              /><path
             d="m 1652.02,366.32 35.97,0 c 14.69,0 25.69,2.364 25.69,15.879 0,13.465 -11,15.828 -25.69,15.828 l -35.97,0 0,-31.707 z m -10.22,41.543 48.56,0 c 13.3,0 32.98,-3.152 32.98,-25.808 0,-19.243 -16.3,-24.825 -26.48,-25.293 l 27.73,-41.203 -12.55,0 -27,40.832 -33.02,0 0,-40.832 -10.22,0 0,92.304"
             style="fill:#7b7678;fill-opacity:1;fill-rule:nonzero;stroke:none"
             id="path42"
              /><path
             d="m 1854.63,398.027 -36.46,0 0,9.836 83.14,0 0,-9.836 -36.44,0 0,-82.468 -10.24,0 0,82.468"
             style="fill:#7b7678;fill-opacity:1;fill-rule:nonzero;stroke:none"
             id="path44"
              /><path
             d="m 1951.45,323.227 c 20.41,0 38.77,11.941 38.77,40 0,20.574 -14.45,37.5 -38.77,37.5 -24.39,0 -38.87,-16.926 -38.87,-37.5 0,-28.059 18.19,-40 38.87,-40 z m 0,86.914 c 28.54,0 49.12,-18.293 49.12,-49.016 0,-32.703 -24.88,-47.871 -49.12,-47.871 -24.32,0 -49.2,15.168 -49.2,47.871 0,30.723 20.59,49.016 49.2,49.016"
             style="fill:#7b7678;fill-opacity:1;fill-rule:nonzero;stroke:none"
             id="path46"
              /><path
             d="m 2025.02,366.32 36.02,0 c 14.59,0 25.53,2.364 25.53,15.879 0,13.465 -10.94,15.828 -25.53,15.828 l -36.02,0 0,-31.707 z m -10.19,41.543 48.44,0 c 13.38,0 32.98,-3.152 32.98,-25.808 0,-19.243 -16.26,-24.825 -26.38,-25.293 l 27.67,-41.203 -12.57,0 -27.02,40.832 -32.93,0 0,-40.832 -10.19,0 0,92.304"
             style="fill:#7b7678;fill-opacity:1;fill-rule:nonzero;stroke:none"
             id="path48"
              /><path
             d="m 2143.77,352.844 -43.28,55.019 13.28,0 35.08,-45.051 35.06,45.051 13.28,0 -43.26,-55.019 0,-37.285 -10.16,0 0,37.285"
             style="fill:#7b7678;fill-opacity:1;fill-rule:nonzero;stroke:none"
             id="path50"
              /><path
             d="m 1393.05,361.867 -16.95,37.188 -16.68,-37.188 33.63,0 z m -23.14,45.996 12.4,0 43.09,-92.304 -11.39,0 -16.76,37.199 -41.89,0 -17.33,-37.199 -11.31,0 43.19,92.304"
             style="fill:#7b7678;fill-opacity:1;fill-rule:nonzero;stroke:none"
             id="path52"
              /><path
             d="m 1799.95,361.867 -16.86,37.188 -16.93,-37.188 33.79,0 z m -23.07,45.996 12.4,0 42.99,-92.304 -11.35,0 -16.79,37.199 -41.59,0 -17.55,-37.199 -11.29,0 43.18,92.304"
             style="fill:#7b7678;fill-opacity:1;fill-rule:nonzero;stroke:none"
             id="path54"
              /><path
             d="m 1067.24,361.867 -16.9,37.188 -16.84,-37.188 33.74,0 z m -23.14,45.996 12.41,0 43.06,-92.304 -11.43,0 -16.7,37.199 -41.65,0 -17.6,-37.199 -11.29,0 43.2,92.304"
             style="fill:#7b7678;fill-opacity:1;fill-rule:nonzero;stroke:none"
             id="path56"
              /><path
             d="m 1016.83,533.566 c 0,20.672 12.78,35 31.16,35 18.39,0 31.22,-14.328 31.22,-35 0,-20.593 -12.83,-34.921 -31.22,-34.921 -18.38,0 -31.16,14.328 -31.16,34.921 z m -31.65,0 c 0,-34.89 28.18,-63.425 62.81,-63.425 34.69,0 62.86,28.535 62.86,63.425 0,35 -28.17,63.516 -62.86,63.516 -34.63,0 -62.81,-28.516 -62.81,-63.516"
             style="fill:#7b7678;fill-opacity:1;fill-rule:nonzero;stroke:none"
             id="path58"
              /><path
             d="m 68.1406,601.621 c 18.9141,0 27.9766,-2.781 27.9766,-18.262 0,-15.562 -9.0625,-18.347 -27.9766,-18.347 0,0 -28.8828,0 -33.8945,0 0,4.676 0,31.933 0,36.609 5.0117,0 33.8945,0 33.8945,0 z M 0,633.094 0,474.16 l 34.2461,0 c 0,0 0,54.152 0,59.406 4.9648,0 27.6328,0 27.6328,0 23.9102,0 68.3981,0 68.3981,49.563 0,49.965 -44.4879,49.965 -68.3981,49.965 L 0,633.094"
             style="fill:#7b7678;fill-opacity:1;fill-rule:nonzero;stroke:none"
             id="path60"
              /><path
             d="m 219.961,509.895 c -10.422,-6.485 -24.164,-13.536 -40.645,-13.536 -5.679,0 -10.035,1.414 -12.445,4.18 -1.906,1.984 -2.941,4.785 -2.941,8.328 0,0.102 0,0.371 0,0.371 0.211,5.91 2.773,12.024 20.734,16.41 11.688,3.036 23.297,4.676 35.297,5.313 0,-4.453 0,-18.52 0,-21.066 z m 31.953,-31.465 c -0.676,1.23 -1.703,5.05 -1.703,16.992 l 0,56.379 c 0,14.629 0,45.054 -55.531,45.054 -27.957,0 -46.41,-9.714 -54.227,-28.289 l 29.645,-7.226 c 2.328,3.887 8.304,8.64 24.742,8.64 16.664,0 25.121,-4.019 25.121,-11.843 0,0 0,-1.121 0,-2.278 -28.508,-1.836 -88.652,-6.668 -88.652,-48.445 0,-29.199 27.847,-37.019 44.296,-37.019 19.93,0 35.149,7.753 44.684,13.281 0.281,-2.61 0.695,-5.227 1.066,-7.219 l 0.5,-2.297 32.149,0 -2.09,4.27"
             style="fill:#7b7678;fill-opacity:1;fill-rule:nonzero;stroke:none"
             id="path62"
              /><path
             d="m 356.531,514.68 c -3.711,-8.426 -13.91,-16.219 -30.648,-16.219 -23.641,0 -32.035,19.078 -32.035,36.973 0,16.152 11.914,33.308 34.047,33.308 15.058,0 23.976,-7.898 27.531,-14.804 l 29.347,7.714 c -6.296,18.836 -25.371,35.301 -58.546,35.203 -41.438,-0.25 -63.137,-30.503 -63.137,-60.339 0,-42.051 23.859,-66.121 65.34,-66.121 31.691,0 49.808,18.066 57.437,36.66 l -29.336,7.625"
             style="fill:#7b7678;fill-opacity:1;fill-rule:nonzero;stroke:none"
             id="path64"
              /><path
             d="m 402.566,593.098 0,-118.938 30.289,0 0,118.938 -30.289,0 z m 0,43.711 0,-28.907 30.289,0 0,28.907 -30.289,0"
             style="fill:#7b7678;fill-opacity:1;fill-rule:nonzero;stroke:none"
             id="path66"
              /><path
             d="m 497.543,594.105 c 0,4.735 1.09,7.286 3.434,10.379 4.437,5.817 20.835,6.899 31.996,5.762 l 8.672,26.977 -2.125,0.425 c -11.883,1.743 -26.36,1.286 -27.293,1.286 l -0.278,0 c -6.066,0 -24.426,-2.125 -35.633,-13.903 -6.05,-6.246 -9.05,-14.98 -9.05,-25.578 0,0 0,-6.668 0,-10.183 -4.118,0 -20.008,0 -20.008,0 l 0,-28.106 c 0,0 15.89,0 20.008,0 0,-5.41 0,-87.004 0,-87.004 l 30.277,0 c 0,0 0,81.594 0,87.004 4.777,0 29.488,0 29.488,0 l 9.137,28.106 c 0,0 -33.848,0 -38.625,0 0,2.175 0,4.835 0,4.835"
             style="fill:#7b7678;fill-opacity:1;fill-rule:nonzero;stroke:none"
             id="path68"
              /><path
             d="m 552.66,474.16 30.2695,0 0,118.938 -30.2695,0 0,-118.938 z"
             style="fill:#7b7678;fill-opacity:1;fill-rule:nonzero;stroke:none"
             id="path70"
              /><path
             d="m 552.66,607.902 30.2695,0 0,28.9062 -30.2695,0 0,-28.9062 z"
             style="fill:#7b7678;fill-opacity:1;fill-rule:nonzero;stroke:none"
             id="path72"
              /><path
             d="m 691.746,514.836 c -3.676,-8.582 -13.848,-16.375 -30.648,-16.375 -23.7,0 -32.051,19.078 -32.051,36.973 0,16.152 11.894,33.308 34.078,33.308 15.055,0 23.992,-7.898 27.559,-14.804 l 29.367,7.648 c -6.324,18.875 -25.442,35.367 -58.567,35.269 -41.48,-0.25 -63.16,-30.503 -63.16,-60.339 0,-42.051 23.817,-66.121 65.391,-66.121 31.633,0 49.844,18.066 57.359,36.66 l -29.328,7.781"
             style="fill:#7b7678;fill-opacity:1;fill-rule:nonzero;stroke:none"
             id="path74"
              /><path
             d="m 939.379,633.094 0,-106.102 -81.777,106.102 -33.989,0 0,-158.934 32.742,0 0,110.117 85.77,-110.117 29.949,0 0,158.934 -32.695,0"
             style="fill:#7b7678;fill-opacity:1;fill-rule:nonzero;stroke:none"
             id="path76"
              /><path
             d="m 1156.79,581.164 c 0,4.473 0,11.934 0,11.934 l -30.29,0 0,-118.938 30.29,0 0,51.965 c 0.24,8.816 -0.67,37.371 17.83,39.734 10.99,1.426 17.95,-2.144 17.95,-2.144 l 0,30.113 c 0,0 -8.19,2.18 -11.97,2.18 -13.76,0 -19.74,-8.438 -23.81,-14.844"
             style="fill:#7b7678;fill-opacity:1;fill-rule:nonzero;stroke:none"
             id="path78"
              /><path
             d="m 1223.46,621.18 0,-27.645 -19.22,0 0,-30.223 19.22,0 0,-57.199 c 0,-24.636 12.19,-35.718 39.4,-35.718 8.59,0 14.37,0.828 25.8,2.324 l 3.67,0.64 0,29.18 -3.46,-0.965 c -5.92,-1.765 -15.68,-3.113 -20.45,-3.113 -10.15,0 -14.68,4.285 -14.68,13.824 l 0,51.027 28.18,0 9.26,30.223 -37.44,0 0,36.793 -30.28,-9.148"
             style="fill:#7b7678;fill-opacity:1;fill-rule:nonzero;stroke:none"
             id="path80"
              /><path
             d="m 1312.06,642.242 0,-168.082 30.27,0 c 0,0 0,77.695 0,79.778 5.94,7.636 13.59,14.804 31.33,14.804 12.46,0 20.15,-4.773 20.15,-28.879 l 0,-65.703 30.3,0 0,75.324 c 0,30.926 -15.39,47.371 -44.67,47.371 -18.36,0 -29.49,-6.667 -37.11,-13.984 0,10.473 0,68.66 0,68.66 l -30.27,-9.289"
             style="fill:#7b7678;fill-opacity:1;fill-rule:nonzero;stroke:none"
             id="path82"
              /><path
             d="m 1594.17,590.898 c 0,0 -22.37,-60.117 -26.61,-72.007 -4.31,11.89 -26.54,72.007 -26.54,72.007 l -25.84,0 c 0,0 -21.82,-59.839 -26.07,-71.921 -4.26,12.082 -26.23,71.921 -26.23,71.921 l -31.96,0 44.59,-116.738 27.15,0 c 0,0 21.23,61.43 25.39,73.664 4.24,-12.234 25.51,-73.664 25.51,-73.664 l 27.6,0 44.16,116.738 -31.15,0"
             style="fill:#7b7678;fill-opacity:1;fill-rule:nonzero;stroke:none"
             id="path84"
              /><path
             d="m 1814.36,549.863 c -15,2.18 -22.83,3.442 -22.83,9.535 0,5.04 5.62,10.836 21.33,10.836 14.49,0 22.75,-5.332 27.79,-10.464 l 23.46,17.371 c -17.27,17.824 -40.57,19.812 -50.69,19.812 -42.05,0 -53.3,-24.324 -53.3,-38.816 0,-22.676 15.31,-34.485 51.33,-39.27 26.7,-3.777 30.04,-4.676 30.04,-10.398 0,-8.289 -12.15,-11.258 -22.44,-11.258 -16.47,0 -28.48,5.477 -35.57,16.055 l -23.98,-17.844 c 9.04,-11.492 22.61,-25.027 57.13,-25.027 35.82,0 56.34,14.617 56.34,39.968 0,31.516 -31.15,35.723 -58.61,39.5"
             style="fill:#7b7678;fill-opacity:1;fill-rule:nonzero;stroke:none"
             id="path86"
              /><path
             d="m 1899.24,621.18 0,-27.645 -19.14,0 0,-30.223 19.14,0 0,-57.199 c 0,-24.636 12.15,-35.718 39.4,-35.718 8.67,0 14.39,0.828 25.92,2.324 l 3.57,0.64 0,29.18 -3.42,-0.965 c -5.94,-1.765 -15.66,-3.113 -20.43,-3.113 -10.11,0 -14.76,4.285 -14.76,13.824 l 0,51.027 32.83,0 4.65,30.223 -37.48,0 0,36.793 -30.28,-9.148"
             style="fill:#7b7678;fill-opacity:1;fill-rule:nonzero;stroke:none"
             id="path88"
              /><path
             d="m 1655.36,549.484 c 4.41,12.891 13.45,19.539 28.12,19.539 16.11,0 25.29,-6.414 29.3,-19.539 -7.15,0 -49.92,0 -57.42,0 z m 28.79,47.121 c -43.09,0 -62.31,-31.593 -62.31,-62.921 0,-37.911 25.76,-63.45 64.06,-63.45 31.25,0 46.62,16.782 53.05,26.977 l -27.6,14.59 c -2.87,-6.496 -11.4,-14.043 -26.27,-14.043 -17.15,0.703 -27.36,9.363 -30.91,25.191 7.73,0 92.48,0 92.48,0 l 0,3.176 c 0,44.363 -22.7,70.078 -62.5,70.48"
             style="fill:#7b7678;fill-opacity:1;fill-rule:nonzero;stroke:none"
             id="path90"
              /><path
             d="m 1355.36,923.559 c -18.58,-6.184 -35.28,-12.192 -49.75,-17.649 -10.1,8.531 -20.33,16.703 -30.53,24.625 24.94,-1.285 52.21,-3.453 80.28,-6.976 z m 47.46,-7.137 c 2.46,-0.484 5.02,-0.879 7.46,-1.367 20.84,-3.117 41.17,-7.508 60.74,-12.563 -37.91,-23.785 -70.06,-46.152 -93.2,-63.105 -13.95,14.226 -28.83,28.449 -44.38,41.988 -2.6,2.461 -5.25,4.883 -7.95,7.293 21.76,8.629 48.07,18.301 77.33,27.754 z m 130.84,34.051 c 10.04,2.183 20.11,4.183 30.33,6.039 -26.17,-13.926 -51.19,-28.332 -74.24,-42.414 -15.66,5.164 -32.01,9.933 -48.77,14.004 29.49,8.558 60.76,16.398 92.68,22.371 z m 99.26,15.851 c 17.18,1.836 33.88,3.258 49.74,4.297 -40.49,-29.844 -78.32,-60.332 -111.83,-89.035 -15.12,7.082 -31.86,14.379 -49.93,21.332 34.46,21.512 72.35,43.445 112.02,63.406 z m 127.46,58.216 c -20.98,-13.64 -41.61,-27.716 -61.45,-42.052 -11.19,-0.047 -22.87,-0.293 -35.06,-0.734 32.27,16.07 64.94,30.306 96.51,42.786 z M 1443.75,763.496 c -13.3,17.141 -28.71,35.703 -45.87,54.492 26.23,19.895 63.28,46.645 107.14,74.836 20.18,-6.254 39.01,-13.008 56.04,-19.594 -51.86,-44.878 -92.72,-84.66 -117.31,-109.734 z m -347.5,235.016 c 1.6,-0.352 32.82,-14.91 76.26,-40.024 -11.14,-0.133 -17.65,-0.398 -18.44,-0.586 -7.72,-0.34 -13.66,-7.011 -13.02,-14.515 0.69,-7.555 6.94,-13.16 14.33,-12.809 1.37,0.227 24.69,1.695 60.53,1.555 18.53,-11.789 37.96,-24.875 57.43,-39.082 -13.04,-5.473 -20.74,-9.106 -21.5,-9.774 -7.83,-3.683 -11.7,-11.808 -8.53,-17.797 3.12,-5.964 11.46,-7.839 19.02,-4.296 0.76,0.718 12.95,6.589 33.12,15.199 6.78,-5.18 13.42,-10.613 20.1,-16.047 14.79,-11.516 28.91,-23.551 42.48,-35.703 -12.87,-9.774 -20.29,-15.988 -20.94,-16.922 -8.18,-6.813 -10.29,-17.754 -4.62,-23.871 5.56,-6.094 16.05,-5.863 23.92,0.703 0.67,0.891 9.06,8.219 23.77,19.687 19.14,-18.355 36.56,-36.402 51.8,-52.89 -8.4,-8.832 -13.19,-14.395 -13.69,-15.395 -9.24,-10.215 -9.73,-24.566 -1.41,-31.422 8.36,-6.761 21.68,-4.371 30.53,5.454 0.31,0.855 4.08,5.25 10.66,12.531 23.4,-26.465 37.56,-43.895 39.22,-42.836 2.19,1.332 -9.06,22.199 -30.33,52.465 24.37,26.351 70.39,73.261 129.78,126.398 31.37,-13.578 50.65,-23.797 50.98,-22.98 1.45,1.648 -15.21,13.754 -43.87,29.316 39.53,35.047 84.61,72.402 132.95,108.246 46.31,1.223 76.7,-0.117 76.7,1.172 0.35,1.625 -25.08,5.453 -65.15,7.273 13.45,9.797 27.14,19.448 41.15,28.878 25.37,18.26 51.29,35.53 77.13,51.76 65.78,20.87 111.56,31.48 111.01,33.25 -0.17,2.02 -30.49,-1.88 -77.28,-12.48 147.83,88.41 282.32,141.46 280.72,144.91 -1.27,5.41 -185.98,-56.62 -364.08,-166.91 -53.46,-15.94 -114.55,-37.62 -173.83,-65.786 -12.42,-5.52 -24.84,-11.293 -36.97,-17.223 -24.79,-2.34 -50.26,-5.731 -75.78,-10.523 -46.06,-7.149 -91.14,-18.278 -131.31,-30.098 -57.54,12.051 -115.06,17.441 -159.89,19.707 -66.62,47.073 -123.36,76.093 -126.06,76.743 -7.23,3.45 -16.92,-1.88 -21.18,-11.81 -4.17,-9.96 -2.44,-20.26 4.29,-23.468"
             style="fill:#e88b0f;fill-opacity:1;fill-rule:nonzero;stroke:none"
             id="path92"
              /><path
             d="m 1450.02,42.6289 -13.02,0 0,38.1992 12.11,0 c 12.44,0 16.68,-8.1562 16.68,-18.7969 0,-9.6796 -6.06,-19.4023 -15.77,-19.4023 z m -13.63,78.8711 9.08,0 c 14.87,0 17.91,-7 17.6,-16.121 0,-9.3595 -7.58,-17.2501 -16.39,-17.2501 l -10.29,0 0,33.3711 z m 29.4,-34.2695 c 9.12,1.5 17.91,8.789 17.91,21.8205 0,12.449 -17.31,19.719 -26.08,19.719 l -43.06,0.281 c 3.02,-16.981 4.21,-27.91 4.21,-45.7815 0,-19.6914 -0.89,-31.2109 -3.9,-50.3281 l 41.52,0 c 7.62,0 29.73,7.8867 29.73,24.5469 0,13.0312 -11.21,27.3203 -20.33,29.7422"
             style="fill:#252122;fill-opacity:1;fill-rule:evenodd;stroke:none"
             id="path94"
              /><path
             d="m 1534.95,51.1211 c 0,-2.7109 -1.53,-4.8516 -3.64,-6.6523 -3.06,-3.0469 -9.72,-4.2579 -14.86,-0.918 -4.53,3.0273 -7.91,9.0976 -6.99,13.9375 0.62,4.8711 2.15,8.4805 5.78,11.5429 2.09,1.8086 4.53,2.7305 13.63,6.9571 l 6.08,2.7422 0,-27.6094 z m 16.99,-5.4297 0,47 c 0,11.1996 -5.78,14.5276 -7.62,16.0586 -7.85,5.449 -22.73,6.969 -33.34,4.531 -5.15,-1.5 -10.92,-6.371 -14.55,-10.293 l 9.1,-8.4763 c 0.88,1.8086 4.24,5.4492 7.27,7.8673 4.26,3.332 9.69,4.23 13.03,3.332 4.86,-0.609 9.12,-3.93 8.78,-9.1016 0,-3.3399 0,-7.5782 0,-7.8789 -0.29,0 -6.95,-1.5 -14.84,-4.2422 -7.28,-2.7383 -11.82,-3.9375 -19.41,-9.0899 -11.21,-7.2968 -12.43,-23.957 -3.93,-34.2773 6.06,-7.3008 14.24,-9.3906 23.67,-8.1797 6.96,0.8789 11.51,3.3281 16.37,8.1797 0,-2.7422 0.9,-4.5195 2.71,-6.3594 1.22,-1.2226 2.74,-2.4336 4.85,-2.4336 l 10.33,0 c -0.92,1.4922 -1.52,1.8125 -1.84,4.543 -0.58,2.1406 -0.89,6.6797 -0.58,8.8203"
             style="fill:#252122;fill-opacity:1;fill-rule:evenodd;stroke:none"
             id="path96"
              /><path
             d="m 1622.56,113.281 -13.61,0 0,15.77 c -0.62,-0.281 -5.18,-2.711 -8.52,-4.539 -2.42,-1.211 -7.53,-3.012 -9.08,-3.641 l 0,-7.59 -10.33,0 0,15.77 c -0.59,-0.281 -4.84,-2.711 -8.48,-4.539 -2.14,-1.211 -7.59,-3.012 -9.1,-3.641 l 0,-7.59 -6.35,0 -4.57,-8.48 11.55,0 0,-21.5315 c 0,-4.539 0.27,-24.2578 0,-31.539 -0.33,-8.5 -0.94,-11.8321 -1.84,-19.1016 l 19.71,0 c -0.29,2.4219 -0.92,11.8399 -0.92,18.1992 0,8.1836 0,25.461 0,31.8438 l 0,22.1291 10.63,0 0.29,-21.5315 c 0,-4.539 0,-24.2578 0,-31.539 -0.59,-8.5 -1.19,-11.8321 -2.11,-19.1016 l 19.69,0 c 0,2.4219 -0.88,11.8399 -0.88,18.1992 0,8.1836 0.31,25.461 0.31,31.8438 l -0.31,22.1291 8.77,0 5.15,8.48"
             style="fill:#252122;fill-opacity:1;fill-rule:evenodd;stroke:none"
             id="path98"
              /><path
             d="m 1670.47,85.7109 -33.34,0 c 0,2.418 2.11,10.6094 5.47,15.7501 2.44,3.34 6.06,6.687 11.8,6.687 4.86,0.282 8.79,-3.347 11.23,-6.367 2.73,-3.6716 5.45,-10.6326 4.84,-16.0701 z m 0,26.9691 c -10,5.172 -20.02,5.172 -29.7,0.941 -9.71,-4.262 -14.26,-10.031 -18.79,-19.1093 -7.89,-15.7812 -5.18,-37.6328 5.74,-50.6601 6.97,-8.1797 15.2,-10.9102 26.09,-10.9102 7.58,-0.3125 12.13,1.1992 18.79,4.25 5.18,2.4297 7.91,4.8398 11.84,8.5 l -6.66,6.0391 c -5.18,-5.461 -10.33,-7.8789 -16.97,-9.1016 -3.97,-0.5977 -6.41,-0.5977 -10.36,0.6016 -5.74,1.8086 -8.45,5.7695 -10.6,11.5312 -2.42,6.3594 -3.95,17 -3.34,20.0078 l 52.5,0 c 0.27,7.6094 -0.94,12.461 -3.63,19.7422 -3.07,8.4763 -7.02,13.6363 -14.91,18.1683"
             style="fill:#252122;fill-opacity:1;fill-rule:evenodd;stroke:none"
             id="path100"
              /><path
             d="m 1715.06,69.6289 0,59.7501 c -3.34,-2.141 -3.94,-2.75 -8.79,-5.168 -3.32,-1.223 -5.46,-2.43 -8.49,-3.652 0,-9.09 0,-14.547 0,-23.9496 0,-16.961 0.31,-15.7813 0,-43.961 0,-7.8867 -1.21,-15.1796 -1.53,-20.3203 l 20.34,0 c 0,2.4336 -1.53,9.7031 -1.53,16.9727 0.32,4.25 0,13.3476 0,20.3281"
             style="fill:#252122;fill-opacity:1;fill-rule:evenodd;stroke:none"
             id="path102"
              /><path
             d="m 1742.35,49.3008 c 0.29,4.25 0,13.3476 0,20.3281 l 0,59.7501 c -3.32,-2.141 -3.95,-2.75 -8.81,-5.168 -3.32,-1.223 -5.45,-2.43 -8.46,-3.652 0,-9.09 0,-14.547 0,-23.9496 0,-16.961 0,-15.7813 0,-43.961 0,-7.8867 -1.25,-15.1796 -1.54,-20.3203 l 20.33,0 c 0,2.4336 -1.81,9.7031 -1.52,16.9727"
             style="fill:#252122;fill-opacity:1;fill-rule:evenodd;stroke:none"
             id="path104"
              /><path
             d="m 1774.18,101.461 c 2.45,3.34 6.06,6.687 11.86,6.687 4.82,0.282 8.75,-3.347 11.17,-6.367 2.78,-3.6716 5.47,-10.6326 4.88,-16.0701 l -33.34,0 c 0,2.418 2.13,10.6094 5.43,15.7501 z m 46.1,-26.6915 c 0.31,7.6094 -0.92,12.461 -3.65,19.7422 -3.01,8.4763 -6.64,13.6363 -14.54,18.1683 -10,5.172 -20.01,5.172 -29.72,0.941 -9.71,-4.262 -14.24,-10.031 -18.79,-19.1093 -7.89,-15.7812 -5.18,-37.6328 5.72,-50.6601 6.99,-8.1797 15.22,-10.9102 26.12,-10.9102 7.57,-0.3125 12.12,1.1992 18.78,4.25 4.85,2.4297 7.89,4.8398 11.53,8.5 l -6.68,6.0391 c -4.85,-5.461 -10,-7.8789 -16.66,-9.1016 -3.95,-0.5977 -6.68,-0.5977 -10.31,0.6016 -5.79,1.8086 -8.5,5.7695 -10.63,11.5312 -2.4,6.3594 -3.95,17 -3.32,20.0078 l 52.15,0"
             style="fill:#252122;fill-opacity:1;fill-rule:evenodd;stroke:none"
             id="path106"
              /><path
             d="m 294.746,121.82 c -2.402,0 -2.672,-0.23 -3.203,-1.511 -0.785,-2.411 -1.855,-10.5 -5.973,-40.7699 15.692,0 34.707,3.539 34.707,22.4219 0,12.277 -9.043,19.859 -25.531,19.859 z m -3.058,-83.8395 0,-3.2696 c -4.25,0.1172 -8.504,0.2383 -15.958,0.2383 -7.847,0 -12.898,-0.2383 -16.226,-0.2383 l 0,3.2696 9.187,0.5195 c 1.985,12.0312 9.704,69.16 10.903,81.551 l -10.235,0.258 0,3.3 c 9.036,0 12.227,0 15.68,0.11 8.227,0.519 15.551,0.91 20.078,0.91 17.809,0 26.321,-11.149 26.321,-21.91 0,-21.9378 -24.192,-26.219 -46.129,-26.219 -1.34,-9.3594 -4.125,-30.1406 -4.782,-38 l 11.161,-0.5195"
             style="fill:#252122;fill-opacity:1;fill-rule:nonzero;stroke:none"
             id="path108"
              /><path
             d="m 335.41,82.4492 c 5.981,4.3125 11.16,7.9805 15.43,7.9805 3.848,0 5.316,-3.3008 5.316,-7.1094 0,-0.8711 -0.664,-4.6601 -0.664,-5.3086 0,-0.25 0.121,-0.4922 0.399,-0.4922 0.265,0 0.414,0.1211 1.468,1.9024 3.442,5.6875 9.297,12.039 14.344,12.039 3.324,0 4.254,-2.5703 4.254,-5.2226 0,-1.5 -0.242,-3.2774 -0.781,-4.9297 -17.563,0.5 -18.758,-4.3086 -22.074,-18.6094 l -6.532,-27.75 -8.89,0 8.508,36.7227 c 0.382,2.0195 1.464,6.6093 1.464,9.0195 0,2.0195 -0.535,3.1367 -2.265,3.1367 -2.004,0 -5.977,-2.289 -8.512,-3.7773 l -1.465,2.3984"
             style="fill:#252122;fill-opacity:1;fill-rule:nonzero;stroke:none"
             id="path110"
              /><path
             d="m 399.359,35.7109 c 12.758,0 21.282,17.7305 21.282,33.9375 0,9.1211 -3.59,17.9805 -12.364,17.9805 -11.715,0 -21.691,-18.4687 -21.691,-34.3203 0,-9.9805 4.269,-17.5977 12.773,-17.5977 z m 8.102,54.7188 c 13.18,0 22.734,-10.0078 22.734,-24.6992 0,-17.3321 -12.746,-32.7891 -30.027,-32.7891 -16.766,0 -23.152,12.7774 -23.152,24.3086 0,16.2188 12.636,33.1797 30.445,33.1797"
             style="fill:#252122;fill-opacity:1;fill-rule:nonzero;stroke:none"
             id="path112"
              /><path
             d="m 501.863,43.5586 c -5.051,-3.6602 -14.093,-10.3789 -19.418,-10.3789 -3.324,0 -4.515,2.5312 -4.515,5.082 0,2.0078 1.191,3.2774 0,3.2774 -0.528,0 -14.371,-8.3594 -22.477,-8.3594 -4.918,0 -10.094,2.6719 -10.094,12.1484 0,9.0117 7.43,30.6602 7.43,36.6016 0,0.7812 -0.387,1.3906 -1.324,1.3906 -1.453,0 -3.598,-0.9805 -10.356,-4.8086 l -1.617,2.418 c 7.863,5.1914 13.297,8.8789 17.828,8.8789 1.864,0 5.051,-0.918 5.051,-5.3398 0,-6.8282 -8.25,-31.2579 -8.25,-38.3594 0,-5.0586 2.93,-7.3477 7.317,-7.3477 4.789,0 8.921,1.7695 16.621,4.918 0.664,0.2617 0.804,0.5117 1.195,2.0391 l 10.914,43.1718 8.898,0 -11.437,-45.332 c -0.27,-0.8594 -0.524,-2.1367 -0.524,-3.2891 0,-0.7578 0.254,-1.25 1.071,-1.25 2.129,0 9.297,5.0586 11.965,6.6993 l 1.722,-2.1602"
             style="fill:#252122;fill-opacity:1;fill-rule:nonzero;stroke:none"
             id="path114"
              /><path
             d="m 554.77,78.1406 c 0.792,3.2891 0.792,3.668 0.792,4.4492 0,4.1719 -4.656,4.8008 -7.718,4.8008 -15.156,0 -25.918,-18.6289 -25.918,-32.3008 0,-8.871 4.769,-15.8203 13.554,-15.8203 4.25,0 7.45,1.6289 12.11,4.6719 l 7.18,34.1992 z m 14.617,-36.0898 c -7.707,-5.5391 -13.825,-9.2617 -18.215,-9.2617 -4.27,0 -4.27,3.9297 -4.27,4.9609 0,0.3711 0.282,2.1484 0,2.3906 -0.117,0.2696 -0.257,0.1289 -1.179,-0.5117 -5.707,-3.6484 -10.114,-6.4492 -16.082,-6.4492 -9.989,0 -17.829,8.6211 -17.829,22.0508 0,18.0976 14.883,35.1992 33.243,35.1992 5.984,0 9.316,-1.7578 11.707,-2.6485 l 6.386,29.6098 c 0.118,0.91 0.512,3.039 0.512,3.949 0,1.121 -0.512,1.269 -1.457,1.269 -0.523,0 -6.383,-0.531 -7.32,-0.648 l -0.512,3.687 21.133,3.262 -18.742,-85.0702 c -0.535,-2.039 -0.801,-3.5703 -0.801,-4.0586 0,-0.3828 0,-1.2812 1.195,-1.2812 1.059,0 4.656,2.1719 10.496,5.9688 l 1.735,-2.418"
             style="fill:#252122;fill-opacity:1;fill-rule:nonzero;stroke:none"
             id="path116"
              /><path
             d="m 606.199,42.6992 c -3.457,-2.668 -12.234,-9.2695 -18.211,-9.2695 -3.718,0 -5.586,2.7812 -5.586,6.1992 0,3.8203 1.868,10.7813 3.336,16.9805 l 14.621,61.5386 c 0,0.5 0.403,2.161 0.403,2.922 0,0.52 0,1.258 -1.614,1.258 -1.445,0 -4.121,-0.367 -7.578,-0.629 l 0,3.68 21.418,3.531 c -1.191,-4.672 -8.375,-30.7616 -9.707,-36.5897 l -5.32,-22.3008 c -1.324,-5.6601 -5.984,-26.0781 -5.984,-29.6093 0,-0.7813 0.132,-1.9102 1.187,-1.9102 1.477,0 9.719,5.3398 11.594,6.6016 l 1.441,-2.4024"
             style="fill:#252122;fill-opacity:1;fill-rule:nonzero;stroke:none"
             id="path118"
              /><path
             d="m 612.578,82.7109 c 8.379,7.461 11.051,7.7188 13.301,7.7188 13.707,0 16.363,-39.0195 17.269,-46.4883 l 0.282,0 c 14.222,22.4375 17.941,30.7695 17.941,35.957 0,4.5704 -3.449,5.3399 -8.629,5.961 l -0.277,2.0312 c 1.336,1 4.531,3.5703 8.105,3.5703 3.86,0 6.387,-3.6797 6.387,-7.3593 0,-7.9805 -5.84,-16.8516 -19.945,-38.7735 C 633.574,24.5703 624.281,10.1406 616.039,0 l -3.867,5.44141 c 11.043,9.50779 14.23,13.80859 19.816,21.41799 2.27,3.1523 2.657,3.9218 2.657,7.4687 0,8.2227 -4.512,49.2735 -13.418,49.2735 -2.387,0 -5.735,-2.4024 -6.786,-3.3125 l -1.863,2.4218"
             style="fill:#252122;fill-opacity:1;fill-rule:nonzero;stroke:none"
             id="path120"
              /><path
             d="m 757.078,35.1992 c 22.082,0 41.633,24.8516 41.633,49.7617 0,20.1601 -12.899,38.3911 -31.645,38.3911 -15.687,0 -39.488,-14.954 -39.488,-49.8832 0,-26.4805 15.016,-38.2696 29.5,-38.2696 z m 9.988,90.6718 c 34.559,0 43.344,-27.4726 43.344,-43.0624 0,-26.0703 -20.875,-50.1367 -52.117,-50.1367 -27.414,0 -42.426,18.1093 -42.426,42.6797 0,30.9294 23.016,50.5194 51.199,50.5194"
             style="fill:#252122;fill-opacity:1;fill-rule:nonzero;stroke:none"
             id="path122"
              /><path
             d="m 832.457,37.8594 c 1.859,-0.4883 3.984,-1.1406 7.449,-1.1406 18.871,0 26.981,18.371 26.981,31.5429 0,10.25 -5.301,15.3399 -11.418,15.3399 -3.746,0 -10.778,-2.8204 -13.047,-5.461 -1.324,-1.5195 -1.578,-2.5312 -2.516,-6.9687 l -7.449,-33.3125 z m 16.879,69.5386 c -2.918,-6.828 -3.574,-9.6285 -5.586,-18.9878 l -1.188,-4.9493 -0.14,-1.1211 c 0,-0.1601 0,-0.4101 0.273,-0.4101 5.453,3.3086 11.703,8.5 18.481,8.5 8.769,0 15.812,-7.4688 15.812,-21.0391 0,-16.9609 -12.09,-36.2109 -31.773,-36.2109 -4.516,0 -9.031,0.8906 -13.277,2.2891 l -7.458,-33.45708 -7.054,0 c -1.86,0 -1.727,0.91016 -1.457,2.03906 L 830.32,68.2617 830.055,68.5195 818.633,58.5 l -2.805,3.3086 15.574,11.8828 5.039,22.3203 c 0.661,2.918 0.93,3.5195 3.067,5.4293 l 7.976,6.957 1.852,-1"
             style="fill:#252122;fill-opacity:1;fill-rule:nonzero;stroke:none"
             id="path124"
              /><path
             d="m 895.59,55.7188 c 0,-0.4883 0.277,-1.2579 0.933,-1.129 0.407,0.1211 28.051,13.9297 28.051,26.9493 0,3.832 -1.844,6.0898 -5.437,6.0898 -12.242,0 -23.547,-17.7383 -23.547,-31.9101 z m 34.176,-5.5586 c -5.043,-7.2305 -12.231,-17.2188 -24.856,-17.2188 -13.039,0 -18.879,10.5078 -18.879,21.6484 0,17.3594 14.09,35.8399 34.289,35.8399 9.188,0 12.785,-4.5703 12.785,-9.2305 0,-2.918 0,-12.4375 -33.125,-27.8906 -3.32,-1.6484 -3.71,-1.7578 -3.71,-2.8984 0,-1.629 1.585,-10.629 12.359,-10.629 8.773,0 15.812,7.7305 18.883,11.7696 l 2.254,-1.3906"
             style="fill:#252122;fill-opacity:1;fill-rule:nonzero;stroke:none"
             id="path126"
              /><path
             d="m 941.723,82.4492 c 5.976,4.3125 11.164,7.9805 15.425,7.9805 3.86,0 5.317,-3.3008 5.317,-7.1094 0,-0.8711 -0.664,-4.6601 -0.664,-5.3086 0,-0.25 0.129,-0.4922 0.394,-0.4922 0.27,0 0.399,0.1211 1.461,1.9024 3.457,5.6875 9.313,12.039 14.371,12.039 3.313,0 4.254,-2.5703 4.254,-5.2226 0,-1.5 -0.265,-3.2774 -0.812,-4.9297 -17.547,0.5 -18.735,-4.3086 -22.071,-18.6094 l -6.511,-27.75 -8.899,0 8.512,36.7227 c 0.387,2.0195 1.465,6.6093 1.465,9.0195 0,2.0195 -0.531,3.1367 -2.281,3.1367 -1.973,0 -5.977,-2.289 -8.496,-3.7773 l -1.465,2.3984"
             style="fill:#252122;fill-opacity:1;fill-rule:nonzero;stroke:none"
             id="path128"
              /><path
             d="m 1026.55,73.6914 c 1.05,4.1992 1.73,7.3789 1.73,8.3672 0,2.4102 -1.73,2.793 -3.6,2.793 -13.95,0 -30.715,-14.4414 -30.715,-33.3008 0,-8.3594 4.664,-12.2813 10.775,-12.2813 6.64,0 11.83,4.4102 13.17,5.6797 2.11,1.9297 2.64,3.9414 3.84,9.2305 l 4.8,19.5117 z m 14.49,-31.6406 c -3.86,-2.5391 -13.71,-9.1094 -18.75,-9.1094 -2.38,0 -3.86,1.2774 -3.86,4.8086 0,0.6289 0.4,3.6719 0.4,4.5508 -5.32,-3.5391 -13.03,-9.3594 -19.81,-9.3594 -8.243,0 -14.895,7.0898 -14.895,17.0898 0,13.2969 11.172,36.3594 45.875,38 1.32,4.168 1.46,4.3985 10.11,4.6876 l -7.97,-32.9376 c -1.62,-6.4726 -4.67,-18.621 -4.67,-19.5117 0,-1.1406 0.4,-1.3906 1.2,-1.3906 1.33,0 9.17,4.8008 10.64,5.5899 l 1.73,-2.418"
             style="fill:#252122;fill-opacity:1;fill-rule:nonzero;stroke:none"
             id="path130"
              /><path
             d="m 1052.58,87.1289 12.24,0.6523 5.45,22.6598 9.04,0 -4.91,-20.2691 c -0.41,-1.9219 0.12,-2.0235 1.05,-1.9219 l 11.7,0.6406 0,-4.2812 -12.22,-0.25 c -1.74,0 -2,-0.3789 -2.53,-2.5508 l -3.06,-12.7695 c -1.06,-4.3203 -5.31,-21.3008 -5.31,-26.2305 0,-2.5391 0.52,-4.5469 3.31,-4.5469 3.07,0 9.98,3.4297 13.29,5.0664 l 1.48,-2.5469 c -7.97,-4.5703 -13.83,-7.8398 -19.56,-7.8398 -4.64,0 -7.57,3.7774 -7.57,9.2383 0,5.1797 1.6,11.3984 2.93,16.9609 l 5.32,22.168 c 0.26,0.75 0.39,1.6523 0.39,1.9023 0,0.6172 -0.52,0.6172 -1.33,0.6172 l -9.71,-0.1093 0,3.4101"
             style="fill:#252122;fill-opacity:1;fill-rule:nonzero;stroke:none"
             id="path132"
              /><path
             d="m 1100.04,55.7188 c 0,-0.4883 0.26,-1.2579 0.95,-1.129 0.39,0.1211 28.04,13.9297 28.04,26.9493 0,3.832 -1.87,6.0898 -5.45,6.0898 -12.23,0 -23.54,-17.7383 -23.54,-31.9101 z m 34.17,-5.5586 c -5.04,-7.2305 -12.23,-17.2188 -24.84,-17.2188 -13.04,0 -18.9,10.5078 -18.9,21.6484 0,17.3594 14.11,35.8399 34.31,35.8399 9.16,0 12.76,-4.5703 12.76,-9.2305 0,-2.918 0,-12.4375 -33.11,-27.8906 -3.32,-1.6484 -3.72,-1.7578 -3.72,-2.8984 0,-1.629 1.6,-10.629 12.37,-10.629 8.76,0 15.81,7.7305 18.88,11.7696 l 2.25,-1.3906"
             style="fill:#252122;fill-opacity:1;fill-rule:nonzero;stroke:none"
             id="path134"
              /><path
             d="m 1188.73,78.1406 c 0.78,3.2891 0.78,3.668 0.78,4.4492 0,4.1719 -4.65,4.8008 -7.7,4.8008 -15.17,0 -25.93,-18.6289 -25.93,-32.3008 0,-8.871 4.78,-15.8203 13.55,-15.8203 4.25,0 7.46,1.6289 12.11,4.6719 l 7.19,34.1992 z m 14.61,-36.0898 c -7.71,-5.5391 -13.83,-9.2617 -18.21,-9.2617 -4.27,0 -4.27,3.9297 -4.27,4.9609 0,0.3711 0.28,2.1484 0,2.3906 -0.13,0.2696 -0.25,0.1289 -1.18,-0.5117 -5.71,-3.6484 -10.11,-6.4492 -16.09,-6.4492 -9.97,0 -17.81,8.6211 -17.81,22.0508 0,18.0976 14.88,35.1992 33.23,35.1992 5.98,0 9.31,-1.7578 11.7,-2.6485 l 6.39,29.6098 c 0.12,0.91 0.53,3.039 0.53,3.949 0,1.121 -0.53,1.269 -1.47,1.269 -0.53,0 -6.38,-0.531 -7.31,-0.648 l -0.53,3.687 21.13,3.262 -18.74,-85.0702 c -0.53,-2.039 -0.79,-3.5703 -0.79,-4.0586 0,-0.3828 0,-1.2812 1.18,-1.2812 1.07,0 4.68,2.1719 10.51,5.9688 l 1.73,-2.418"
             style="fill:#252122;fill-opacity:1;fill-rule:nonzero;stroke:none"
             id="path136"
              /><path
             d="m 1261.55,43.1914 c -0.26,-0.6406 -0.67,-2.7812 -0.67,-3.5625 0,-3.6484 7.74,-3.6484 8.52,-3.6484 20.6,0 27.66,23.0507 27.66,33.5507 0,9.5 -4.4,14.8282 -11.96,14.8282 -5.72,0 -12.38,-3.8086 -14.37,-6.2188 -1.19,-1.4101 -1.86,-2.5312 -3.44,-9.2422 l -5.74,-25.707 z m -11.68,-10.25 c 1.33,4.5391 2.38,8.9688 3.46,13.6602 l 13.41,60.2894 c 0.55,2.16 2.8,12.418 2.8,14.058 0,1.012 -0.8,1.281 -1.61,1.281 -0.64,0 -6.64,-0.64 -7.55,-0.769 l 0,3.668 21.93,3.781 c -2.15,-7.211 -4.28,-14.539 -5.98,-22.019 l -5.88,-24.0824 c -0.13,-1 -0.25,-1.6094 0.28,-1.2695 7.17,5.4609 11.83,8.8906 20.1,8.8906 11.01,0 16.34,-9.8789 16.34,-19.6211 0,-16.8477 -12.89,-37.8672 -33.79,-37.8672 -6.09,0 -11.56,2.3984 -13.55,2.3984 -2.13,0 -4,-1.0117 -8.24,-3.6796 l -1.72,1.2812"
             style="fill:#252122;fill-opacity:1;fill-rule:nonzero;stroke:none"
             id="path138"
              /><path
             d="m 1312.62,82.7109 c 8.36,7.461 11.02,7.7188 13.28,7.7188 13.68,0 16.35,-39.0195 17.29,-46.4883 l 0.25,0 c 14.24,22.4375 17.97,30.7695 17.97,35.957 0,4.5704 -3.48,5.3399 -8.67,5.961 l -0.24,2.0312 c 1.31,1 4.5,3.5703 8.11,3.5703 3.85,0 6.37,-3.6797 6.37,-7.3593 0,-7.9805 -5.86,-16.8516 -19.94,-38.7735 C 1333.62,24.5703 1324.3,10.1406 1316.04,0 l -3.83,5.44141 c 11.02,9.50779 14.22,13.80859 19.81,21.41799 2.26,3.1523 2.65,3.9218 2.65,7.4687 0,8.2227 -4.51,49.2735 -13.43,49.2735 -2.39,0 -5.71,-2.4024 -6.76,-3.3125 l -1.86,2.4218"
             style="fill:#252122;fill-opacity:1;fill-rule:nonzero;stroke:none"
             id="path140"
              /><path
             d="m 1867.7,58.7695 2.64,-0.1289 c 1.6,-12.9218 10.39,-22.9297 24.35,-22.9297 12.48,0 18.75,8.4805 18.75,17.8672 0,25.711 -42.05,21.0117 -42.05,48.6129 0,13.071 10.94,23.68 27.15,23.68 10.63,0 19.82,-4.531 23.13,-4.531 2.12,0 2.79,1.379 3.2,2.14 l 3.59,-0.269 -3.46,-23.2813 -2.69,0.2423 c -1.97,18.738 -16.45,22.687 -23.5,22.687 -9.2,0 -17.56,-6.609 -17.56,-16.089 0,-22.5591 42.54,-19.3794 42.54,-48.1294 0,-14.5625 -12.89,-25.9687 -28.45,-25.9687 -11.29,0 -20.86,4.3086 -25,4.3086 -1.86,0 -2.27,-0.8711 -2.91,-2.4219 l -3.21,0.3906 3.48,23.8203"
             style="fill:#252122;fill-opacity:1;fill-rule:nonzero;stroke:none"
             id="path142"
              /><path
             d="m 1955.69,108.91 c -0.94,0 -1.19,0.262 -1.19,1.149 0,4.55 1.99,11.531 7.44,11.531 2.24,0 4.8,-2.539 4.8,-4.699 0,-4.68 -6.66,-7.981 -11.05,-7.981 z m -15.55,-26.7303 c 0.41,0.4101 10.76,8.25 17.13,8.25 3.73,0 4.81,-2.6485 4.81,-4.3086 0,-4.582 -10.9,-43.3125 -10.9,-45.7109 0,-0.7813 0.13,-1.5313 1.19,-1.5313 0.8,0 1.19,0.3906 5.7,3.0313 2.79,1.6484 3.07,1.7695 4.01,2.2812 l 1.6,-2.3906 c -8.52,-5.8203 -13.3,-8.3711 -17.31,-8.3711 -2.91,0 -4.76,1.7695 -4.76,4.5508 0,2.5507 10.89,40.6797 10.89,45.7383 0,0.8906 -0.41,1.3906 -1.07,1.3906 -0.94,0 -2.38,-0.75 -9.82,-5.211 l -1.47,2.2813"
             style="fill:#252122;fill-opacity:1;fill-rule:nonzero;stroke:none"
             id="path144"
              /><path
             d="m 1975.88,82.4492 c 9.05,6.332 12.39,7.9805 15.98,7.9805 4.36,0 5.84,-3.3008 5.84,-7.6211 0,-3.0274 -0.66,-4.4102 0,-4.4102 0.66,0 17.4,12.0313 27.27,12.0313 5.84,0 8.9,-4.1914 8.9,-8.5 0,-6.6914 -9.7,-37.8516 -9.7,-41.7891 0,-0.5117 0.25,-1.1211 1.07,-1.1211 1.44,0 6.62,3.5313 10.88,6.4493 l 1.87,-2.2774 c -2.79,-2.293 -11.56,-9.25 -17.44,-9.25 -2.63,0 -5.45,1.6602 -5.45,5.1875 0,5.7109 9.71,34.1992 9.71,41.293 0,2.289 -2.25,3.6797 -5.82,3.6797 -6.66,0 -15.59,-4.3204 -18.52,-6.211 -2.91,-1.7695 -3.57,-3.4297 -5.17,-10.3906 l -7.17,-32.5508 -9.04,0 9.04,40.4024 c 0.66,3.0468 1.05,5.8476 1.05,6.8281 0,1.9219 -0.64,2.4297 -2.12,2.4297 -2.27,0 -5.59,-2.0196 -9.57,-4.5586 l -1.61,2.3984"
             style="fill:#252122;fill-opacity:1;fill-rule:nonzero;stroke:none"
             id="path146"
              /><path
             d="m 2090.88,49.1211 c -6.64,-10.2422 -14.76,-16.1797 -24.06,-16.1797 -12.64,0 -19.41,9.9883 -19.41,22.0274 0,17.4804 13.16,35.4609 31.91,35.4609 10.78,0 15.45,-5.8203 15.45,-11.0078 0,-3.5508 -2.28,-7.961 -9.34,-7.961 -1.58,0 -2.24,0.7305 -2.24,1.4883 0,1.5117 3.59,8.5899 3.59,11.1524 0,2.3984 -2.26,3.5273 -5.86,3.5273 -14.37,0 -23.42,-18.3477 -23.42,-32.6601 0,-9.5 4.54,-15.4571 12.78,-15.4571 7.85,0 13.16,5.4375 18.61,11.2695 l 1.99,-1.6601"
             style="fill:#252122;fill-opacity:1;fill-rule:nonzero;stroke:none"
             id="path148"
              /><path
             d="m 2111.49,55.7188 c 0,-0.4883 0.25,-1.2579 0.94,-1.129 0.39,0.1211 28.04,13.9297 28.04,26.9493 0,3.832 -1.87,6.0898 -5.47,6.0898 -12.2,0 -23.51,-17.7383 -23.51,-31.9101 z m 34.16,-5.5586 c -5.04,-7.2305 -12.23,-17.2188 -24.86,-17.2188 -13.03,0 -18.87,10.5078 -18.87,21.6484 0,17.3594 14.08,35.8399 34.3,35.8399 9.18,0 12.75,-4.5703 12.75,-9.2305 0,-2.918 0,-12.4375 -33.11,-27.8906 -3.3,-1.6484 -3.73,-1.7578 -3.73,-2.8984 0,-1.629 1.61,-10.629 12.39,-10.629 8.79,0 15.82,7.7305 18.86,11.7696 l 2.27,-1.3906"
             style="fill:#252122;fill-opacity:1;fill-rule:nonzero;stroke:none"
             id="path150"
              /><path
             d="m 2229.4,34.7109 c -6.11,0 -12.36,0.2383 -16.48,0.2383 -2.93,0 -12.49,-0.2383 -16.22,-0.2383 l 0,3.1485 11.45,0.9023 c 0.92,5.7071 1.84,13.0586 2.62,19 l 8,61.1483 -11.15,0.141 0,4.301 21.78,2.027 -8.77,-67.4884 c -1.6,-13.1718 -1.86,-14.5625 -2.13,-19.1289 l 10.9,-0.9023 0,-3.1485"
             style="fill:#252122;fill-opacity:1;fill-rule:nonzero;stroke:none"
             id="path152"
              /><path
             d="m 2274.59,70.9219 c 1.61,0 7.33,0.3867 13.44,3.9375 1.35,4.5625 4.53,13.6797 4.53,24.8125 0,13.5471 -4.78,23.4181 -17.14,23.4181 -13.44,0 -21.41,-14.918 -21.41,-29.8791 0,-19.7421 15.55,-22.289 20.58,-22.289 z m -0.25,54.9491 c 12.91,0 27.27,-7.32 27.27,-29.2304 0,-22.0508 -11.43,-42.5703 -30.08,-55.4804 -9.03,-6.211 -15.94,-8.4883 -16.33,-8.4883 -0.53,0 -1.07,0.6289 -1.07,1.1367 0,0.5195 1.32,1.3906 2.93,2.3008 10.64,6.4414 22.61,18.8594 29.1,34.582 -2.78,-0.8906 -8.23,-3.0703 -15.55,-3.0703 -11.95,0 -25.92,7.6172 -25.92,26.1094 0,17.3475 12.37,32.1405 29.65,32.1405"
             style="fill:#252122;fill-opacity:1;fill-rule:nonzero;stroke:none"
             id="path154"
              /><path
             d="m 2357.84,67.8789 c 0,11.043 -5.06,21.0117 -18.11,21.0117 -5.68,0 -13.67,-3.1406 -14.88,-5.0625 -0.41,-0.5078 -4.24,-11.1289 -4.24,-23.9297 0,-10.0976 2.52,-23.9179 17.81,-23.9179 12.62,0 19.42,18.1992 19.42,31.8984 z m 14.22,56.2301 c -20.22,-1.129 -37.91,-16.589 -45.47,-35.9606 5.17,2.5313 10.37,3.8008 16.21,3.8008 11.31,0 24.08,-7.3398 24.08,-25.3476 0,-17.9727 -10.78,-33.1719 -29.51,-33.1719 -15.29,0 -25.82,10.5117 -25.82,31.2891 0,16.3515 6.78,34.4531 19.8,46.0902 16.78,14.953 32.97,15.472 40.71,15.589 l 0,-2.289"
             style="fill:#252122;fill-opacity:1;fill-rule:nonzero;stroke:none"
             id="path156"
              /><path
             d="m 2392.09,123.609 23.29,0 c 1.32,0 6.77,0.11 9.98,0.379 l 0.93,4.684 3.71,0 -2.51,-13.543 -33.54,-0.25 -3.28,-23.1876 c 18.71,-2.1602 32.15,-8.8828 32.15,-24.1914 0,-29 -43.73,-34.8281 -45.08,-34.8281 -0.92,0 -1.19,0.5078 -1.19,1.2695 0,0.8867 0.41,1.0078 4.92,2.418 24.22,7.4804 32.3,18.3515 32.3,30.0195 0,12.6523 -12.77,14.8203 -27.77,17.3399 l 6.09,39.8902"
             style="fill:#252122;fill-opacity:1;fill-rule:nonzero;stroke:none"
             id="path158"
              />
</g></g></g></svg>
